HIERARCHY
ROOT mixamorig:Hips
{
	OFFSET 0.000000 201.639420 0.000000
	CHANNELS 6 Xposition Yposition Zposition Xrotation Yrotation Zrotation
	JOINT mixamorig:Spine
	{
		OFFSET 0.006200 19.524994 -2.481800
		CHANNELS 3 Xrotation Yrotation Zrotation
		JOINT mixamorig:Spine1
		{
			OFFSET -0.000900 22.835007 -2.825400
			CHANNELS 3 Xrotation Yrotation Zrotation
			JOINT mixamorig:Spine2
			{
				OFFSET -0.020600 26.552490 -3.193300
				CHANNELS 3 Xrotation Yrotation Zrotation
				JOINT mixamorig:Neck
				{
					OFFSET -0.060000 30.701813 1.352200
					CHANNELS 3 Xrotation Yrotation Zrotation
					JOINT mixamorig:Head
					{
						OFFSET -0.087200 22.547607 3.670900
						CHANNELS 3 Xrotation Yrotation Zrotation
						JOINT mixamorig:HeadTop_End
						{
							OFFSET -0.830600 40.355194 7.893500
							CHANNELS 3 Xrotation Yrotation Zrotation
							End Site
							{
								OFFSET 0.000000 30.592346 0.000000
							}
						}
						JOINT mixamorig:RightEye
						{
							OFFSET -6.302100 18.118591 16.197100
							CHANNELS 3 Xrotation Yrotation Zrotation
							End Site
							{
								OFFSET 0.000000 30.592346 0.000000
							}
						}
						JOINT mixamorig:LeftEye
						{
							OFFSET 6.741500 18.382690 16.401899
							CHANNELS 3 Xrotation Yrotation Zrotation
							End Site
							{
								OFFSET 0.000000 30.592346 0.000000
							}
						}
					}
				}
				JOINT mixamorig:LeftShoulder
				{
					OFFSET 11.924900 18.230499 1.425400
					CHANNELS 3 Xrotation Yrotation Zrotation
					JOINT mixamorig:LeftArm
					{
						OFFSET 25.435989 -0.697632 -5.229300
						CHANNELS 3 Xrotation Yrotation Zrotation
						JOINT mixamorig:LeftForeArm
						{
							OFFSET 54.684776 0.000000 0.000000
							CHANNELS 3 Xrotation Yrotation Zrotation
							JOINT mixamorig:LeftHand
							{
								OFFSET 55.098175 0.000000 0.000000
								CHANNELS 3 Xrotation Yrotation Zrotation
								JOINT mixamorig:LeftHandMiddle1
								{
									OFFSET 23.369751 0.000000 0.000000
									CHANNELS 3 Xrotation Yrotation Zrotation
									JOINT mixamorig:LeftHandMiddle2
									{
										OFFSET 6.378677 0.000000 0.000000
										CHANNELS 3 Xrotation Yrotation Zrotation
										JOINT mixamorig:LeftHandMiddle3
										{
											OFFSET 6.148331 0.000000 0.000000
											CHANNELS 3 Xrotation Yrotation Zrotation
											JOINT mixamorig:LeftHandMiddle4
											{
												OFFSET 6.582504 0.000000 0.000000
												CHANNELS 3 Xrotation Yrotation Zrotation
												End Site
												{
													OFFSET -1.168900 6.395691 1.028606
												}
											}
										}
									}
								}
								JOINT mixamorig:LeftHandThumb1
								{
									OFFSET 7.235672 -3.848206 5.434273
									CHANNELS 3 Xrotation Yrotation Zrotation
									JOINT mixamorig:LeftHandThumb2
									{
										OFFSET 6.568451 -3.792297 3.792300
										CHANNELS 3 Xrotation Yrotation Zrotation
										JOINT mixamorig:LeftHandThumb3
										{
											OFFSET 6.063080 -3.500519 3.500518
											CHANNELS 3 Xrotation Yrotation Zrotation
											JOINT mixamorig:LeftHandThumb4
											{
												OFFSET 4.793182 -2.767334 2.767349
												CHANNELS 3 Xrotation Yrotation Zrotation
												End Site
												{
													OFFSET 0.101639 6.054260 1.275483
												}
											}
										}
									}
								}
								JOINT mixamorig:LeftHandIndex1
								{
									OFFSET 23.101074 -0.309540 4.992809
									CHANNELS 3 Xrotation Yrotation Zrotation
									JOINT mixamorig:LeftHandIndex2
									{
										OFFSET 6.226883 0.000000 0.000000
										CHANNELS 3 Xrotation Yrotation Zrotation
										JOINT mixamorig:LeftHandIndex3
										{
											OFFSET 6.094330 0.000000 0.000000
											CHANNELS 3 Xrotation Yrotation Zrotation
											JOINT mixamorig:LeftHandIndex4
											{
												OFFSET 5.482605 0.000000 0.000000
												CHANNELS 3 Xrotation Yrotation Zrotation
												End Site
												{
													OFFSET -1.427902 5.233032 0.797164
												}
											}
										}
									}
								}
								JOINT mixamorig:LeftHandRing1
								{
									OFFSET 22.299240 0.021149 -3.964172
									CHANNELS 3 Xrotation Yrotation Zrotation
									JOINT mixamorig:LeftHandRing2
									{
										OFFSET 6.321869 0.000000 0.000000
										CHANNELS 3 Xrotation Yrotation Zrotation
										JOINT mixamorig:LeftHandRing3
										{
											OFFSET 5.899796 0.000000 0.000000
											CHANNELS 3 Xrotation Yrotation Zrotation
											JOINT mixamorig:LeftHandRing4
											{
												OFFSET 6.517899 0.000000 0.000000
												CHANNELS 3 Xrotation Yrotation Zrotation
												End Site
												{
													OFFSET -1.637299 6.232208 0.980890
												}
											}
										}
									}
								}
								JOINT mixamorig:LeftHandPinky1
								{
									OFFSET 20.463791 -0.302338 -8.562233
									CHANNELS 3 Xrotation Yrotation Zrotation
									JOINT mixamorig:LeftHandPinky2
									{
										OFFSET 6.908646 0.000000 0.000000
										CHANNELS 3 Xrotation Yrotation Zrotation
										JOINT mixamorig:LeftHandPinky3
										{
											OFFSET 4.622849 0.000000 0.000000
											CHANNELS 3 Xrotation Yrotation Zrotation
											JOINT mixamorig:LeftHandPinky4
											{
												OFFSET 5.216080 0.000000 0.000000
												CHANNELS 3 Xrotation Yrotation Zrotation
												End Site
												{
													OFFSET -0.606308 5.116241 0.814926
												}
											}
										}
									}
								}
							}
						}
					}
				}
				JOINT mixamorig:RightShoulder
				{
					OFFSET -12.001300 18.284088 1.348900
					CHANNELS 3 Xrotation Yrotation Zrotation
					JOINT mixamorig:RightArm
					{
						OFFSET -25.308500 -0.751312 -5.164599
						CHANNELS 3 Xrotation Yrotation Zrotation
						JOINT mixamorig:RightForeArm
						{
							OFFSET -54.684429 0.000000 0.000000
							CHANNELS 3 Xrotation Yrotation Zrotation
							JOINT mixamorig:RightHand
							{
								OFFSET -55.150291 0.000000 0.000000
								CHANNELS 3 Xrotation Yrotation Zrotation
								JOINT mixamorig:RightHandMiddle1
								{
									OFFSET -23.317566 0.000000 0.000000
									CHANNELS 3 Xrotation Yrotation Zrotation
									JOINT mixamorig:RightHandMiddle2
									{
										OFFSET -6.378403 0.000000 0.000000
										CHANNELS 3 Xrotation Yrotation Zrotation
										JOINT mixamorig:RightHandMiddle3
										{
											OFFSET -6.148193 0.000000 0.000000
											CHANNELS 3 Xrotation Yrotation Zrotation
											JOINT mixamorig:RightHandMiddle4
											{
												OFFSET -6.583389 0.000000 0.000000
												CHANNELS 3 Xrotation Yrotation Zrotation
												End Site
												{
													OFFSET 1.171692 6.395905 1.029786
												}
											}
										}
									}
								}
								JOINT mixamorig:RightHandThumb1
								{
									OFFSET -7.190521 -3.860474 5.435846
									CHANNELS 3 Xrotation Yrotation Zrotation
									JOINT mixamorig:RightHandThumb2
									{
										OFFSET -6.567429 -3.791718 3.791708
										CHANNELS 3 Xrotation Yrotation Zrotation
										JOINT mixamorig:RightHandThumb3
										{
											OFFSET -6.062469 -3.500153 3.500166
											CHANNELS 3 Xrotation Yrotation Zrotation
											JOINT mixamorig:RightHandThumb4
											{
												OFFSET -4.792618 -2.767029 2.767022
												CHANNELS 3 Xrotation Yrotation Zrotation
												End Site
												{
													OFFSET -0.100327 6.053253 1.276754
												}
											}
										}
									}
								}
								JOINT mixamorig:RightHandIndex1
								{
									OFFSET -23.048981 -0.310791 4.992554
									CHANNELS 3 Xrotation Yrotation Zrotation
									JOINT mixamorig:RightHandIndex2
									{
										OFFSET -6.227539 0.000000 0.000000
										CHANNELS 3 Xrotation Yrotation Zrotation
										JOINT mixamorig:RightHandIndex3
										{
											OFFSET -6.095047 0.000000 0.000000
											CHANNELS 3 Xrotation Yrotation Zrotation
											JOINT mixamorig:RightHandIndex4
											{
												OFFSET -5.484772 0.000000 0.000000
												CHANNELS 3 Xrotation Yrotation Zrotation
												End Site
												{
													OFFSET 1.420593 5.237305 0.797056
												}
											}
										}
									}
								}
								JOINT mixamorig:RightHandRing1
								{
									OFFSET -22.246323 0.020569 -3.963762
									CHANNELS 3 Xrotation Yrotation Zrotation
									JOINT mixamorig:RightHandRing2
									{
										OFFSET -6.322128 0.000000 0.000000
										CHANNELS 3 Xrotation Yrotation Zrotation
										JOINT mixamorig:RightHandRing3
										{
											OFFSET -5.900024 0.000000 0.000000
											CHANNELS 3 Xrotation Yrotation Zrotation
											JOINT mixamorig:RightHandRing4
											{
												OFFSET -6.518356 0.000000 0.000000
												CHANNELS 3 Xrotation Yrotation Zrotation
												End Site
												{
													OFFSET 1.636398 6.232697 0.982186
												}
											}
										}
									}
								}
								JOINT mixamorig:RightHandPinky1
								{
									OFFSET -20.411011 -0.303314 -8.561701
									CHANNELS 3 Xrotation Yrotation Zrotation
									JOINT mixamorig:RightHandPinky2
									{
										OFFSET -6.907349 0.000000 0.000000
										CHANNELS 3 Xrotation Yrotation Zrotation
										JOINT mixamorig:RightHandPinky3
										{
											OFFSET -4.623840 0.000000 0.000000
											CHANNELS 3 Xrotation Yrotation Zrotation
											JOINT mixamorig:RightHandPinky4
											{
												OFFSET -5.218353 0.000000 0.000000
												CHANNELS 3 Xrotation Yrotation Zrotation
												End Site
												{
													OFFSET 0.602097 5.118835 0.816273
												}
											}
										}
									}
								}
							}
						}
					}
				}
			}
		}
	}
	JOINT mixamorig:LeftUpLeg
	{
		OFFSET 18.168400 -13.561905 -0.039000
		CHANNELS 3 Xrotation Yrotation Zrotation
		JOINT mixamorig:LeftLeg
		{
			OFFSET 0.577358 -80.825211 -3.695000
			CHANNELS 3 Xrotation Yrotation Zrotation
			JOINT mixamorig:LeftFoot
			{
				OFFSET -0.577356 -83.370262 -6.520700
				CHANNELS 3 Xrotation Yrotation Zrotation
				JOINT mixamorig:LeftToeBase
				{
					OFFSET 0.750401 -20.798306 25.135401
					CHANNELS 3 Xrotation Yrotation Zrotation
					JOINT mixamorig:LeftToe_End
					{
						OFFSET -0.000500 0.001200 19.917799
						CHANNELS 3 Xrotation Yrotation Zrotation
						End Site
						{
							OFFSET 0.000000 19.917805 0.000000
						}
					}
				}
			}
		}
	}
	JOINT mixamorig:RightUpLeg
	{
		OFFSET -18.162500 -13.585098 -0.041000
		CHANNELS 3 Xrotation Yrotation Zrotation
		JOINT mixamorig:RightLeg
		{
			OFFSET -0.595024 -80.945297 -3.631900
			CHANNELS 3 Xrotation Yrotation Zrotation
			JOINT mixamorig:RightFoot
			{
				OFFSET 0.595024 -83.218193 -6.561200
				CHANNELS 3 Xrotation Yrotation Zrotation
				JOINT mixamorig:RightToeBase
				{
					OFFSET -0.753601 -20.807106 25.115000
					CHANNELS 3 Xrotation Yrotation Zrotation
					JOINT mixamorig:RightToe_End
					{
						OFFSET 0.000299 0.001700 19.918200
						CHANNELS 3 Xrotation Yrotation Zrotation
						End Site
						{
							OFFSET 0.000000 19.918203 0.000000
						}
					}
				}
			}
		}
	}
}
MOTION
Frames: 4
Frame Time: 0.033333
-35.502865 195.924957 66.411530 9.134378 17.666523 3.972984 16.345099 13.918151 -3.183139 3.699796 4.001587 0.229031 3.697494 3.993548 0.136165 0.922248 -2.304220 0.819158 -4.004211 -16.415583 -1.907066 0.000002 0.000002 0.000001 0.000002 0.000002 0.000001 0.000002 0.000002 0.000001 0.999684 2.675774 -17.354928 9.627941 -14.543775 -56.591655 -0.000001 -30.291445 0.000017 18.595841 2.984937 7.606001 0.307204 4.090318 -21.509435 0.415452 2.168697 -21.687145 0.063219 0.859222 -8.415387 0.000001 0.000000 0.000000 0.954562 -7.403821 15.336491 4.824517 23.742651 16.998758 -0.781166 7.081887 32.649062 0.000000 -0.000001 0.000000 -1.243297 -3.021500 -12.619126 0.437176 2.222504 -22.254095 0.091080 1.030097 -10.105399 -0.000000 0.000000 -0.000002 1.086005 6.011277 -22.090312 0.418173 2.175514 -21.758701 0.226322 1.614184 -15.961551 -0.000002 0.000002 0.000001 2.112865 7.584119 -28.637651 0.437458 2.223193 -22.261347 0.140586 1.277022 -12.564014 -0.000001 0.000001 -0.000001 -0.721340 25.023849 15.892605 -45.075120 0.940917 21.577071 0.000002 25.659684 -0.000006 -34.765902 6.934660 -12.175940 -0.493219 -1.023775 15.930130 0.587654 -2.266479 29.067694 0.144469 -1.152193 14.293657 0.000001 0.000002 0.000004 20.095318 12.547796 6.216874 -9.069866 -1.233884 -9.485615 -17.190027 6.560904 -18.206187 0.000000 -0.000001 -0.000001 -0.817424 2.551169 9.651605 0.277967 -1.586427 19.875531 0.016739 -0.394970 4.854372 0.000002 0.000003 0.000002 -0.079905 -2.442095 15.345519 1.008229 -2.895807 38.385947 0.140934 -1.138212 14.116626 0.000001 -0.000000 -0.000002 0.356868 -4.121268 32.365008 1.206425 -3.129454 42.156020 0.601175 -2.290612 29.407987 0.000000 0.000001 -0.000002 -37.259242 1.290058 -4.434084 21.923102 2.576598 -0.787061 3.126475 0.426565 -8.931300 -1.530287 0.000014 0.000004 -0.000001 0.000001 -0.000000 -22.895831 -13.383799 -6.552695 29.885930 1.470198 2.193206 -18.989550 -11.910147 -6.012149 -5.090597 -0.000005 -0.000000 -0.000000 -0.000000 -0.000000 
-35.017300 195.491135 70.171913 8.878259 15.106469 4.020845 16.401296 14.073743 -4.233351 3.942994 4.087546 0.140897 3.932778 4.080060 0.049120 0.913265 -2.155457 0.695970 -3.727486 -15.231919 -1.595902 0.000000 0.000001 -0.000001 0.000000 0.000001 -0.000001 0.000000 0.000001 -0.000001 1.027650 2.855850 -17.642636 9.148826 -14.397071 -56.248203 0.000010 -29.971659 -0.000006 19.278718 2.379871 7.184422 0.306777 4.089011 -21.498659 0.414881 2.167251 -21.671847 0.063052 0.858135 -8.404725 -0.000000 -0.000001 -0.000001 0.958074 -7.405095 15.344237 4.825237 23.733476 16.993330 -0.779851 7.073255 32.643376 0.000003 -0.000000 -0.000001 -1.242493 -3.022381 -12.610878 0.436696 2.221328 -22.241669 0.090930 1.029260 -10.097148 -0.000000 -0.000001 0.000000 1.084904 6.009637 -22.075624 0.417596 2.174044 -21.743337 0.225910 1.612742 -15.946917 -0.000000 -0.000004 0.000002 2.111394 7.583031 -28.621824 0.437179 2.222498 -22.254059 0.140333 1.275925 -12.553039 -0.000001 0.000001 0.000003 -1.055910 24.575412 17.389476 -40.977071 -3.425564 25.161179 0.000012 33.399683 -0.000033 -28.777452 5.198510 -9.757875 -0.507969 -1.066331 16.493650 0.610244 -2.306622 29.634056 0.156053 -1.196696 14.858170 0.000002 0.000001 0.000000 19.521560 11.938789 6.566604 -9.232062 -1.245797 -9.667840 -17.209394 6.909707 -18.269764 0.000001 -0.000001 0.000000 -0.868315 2.514099 10.220897 0.293881 -1.629737 20.442203 0.020840 -0.440673 5.417753 -0.000001 -0.000001 -0.000002 -0.078864 -2.486960 15.913975 1.037204 -2.931972 38.956080 0.152454 -1.183074 14.685303 -0.000003 -0.000000 -0.000001 0.374093 -4.161971 32.916741 1.235861 -3.161620 42.692610 0.622768 -2.328471 29.943764 0.000000 -0.000002 -0.000001 -38.896165 1.451910 -4.375670 22.162921 3.118569 -0.998853 0.994186 0.642986 -9.078707 -1.299141 0.000001 -0.000002 0.000001 0.000001 -0.000000 -21.208842 -13.708591 -6.318161 29.692560 1.796490 2.312528 -19.944839 -9.627289 -5.709044 -5.064382 -0.000001 -0.000001 -0.000000 -0.000001 -0.000000 
-34.396435 195.071701 74.289970 8.541239 12.292051 4.181014 16.625608 14.244818 -5.333159 4.229673 4.175438 -0.017718 4.212437 4.167087 -0.112829 0.838659 -1.978676 0.545815 -3.725136 -13.706454 -1.553033 -0.000001 -0.000001 -0.000000 -0.000001 -0.000001 -0.000000 -0.000001 -0.000001 -0.000000 1.024875 2.963721 -17.748207 8.811344 -14.609845 -55.901813 -0.000012 -30.565400 -0.000023 19.964100 1.784033 6.528802 0.306420 4.087905 -21.488924 0.414358 2.165929 -21.658009 0.062909 0.857166 -8.395108 0.000001 -0.000003 0.000000 0.961308 -7.405668 15.351397 4.825856 23.725359 16.988309 -0.778691 7.065381 32.638476 -0.000002 0.000001 -0.000000 -1.241809 -3.023381 -12.603427 0.436262 2.220268 -22.230490 0.090796 1.028510 -10.089693 -0.000000 -0.000001 0.000000 1.083861 6.008047 -22.062339 0.417064 2.172736 -21.729448 0.225541 1.611433 -15.933701 0.000000 -0.000005 0.000000 2.110007 7.581945 -28.607569 0.436924 2.221878 -22.247480 0.140121 1.274930 -12.543143 0.000000 -0.000000 -0.000002 -1.045807 23.606426 18.443196 -36.387252 -7.028760 29.895315 0.000002 39.932028 0.000010 -21.251451 3.283057 -6.114122 -0.522548 -1.105427 17.038578 0.632473 -2.345219 30.181612 0.167646 -1.239599 15.403969 0.000005 -0.000001 -0.000002 19.068246 11.214290 6.842013 -9.313405 -1.224808 -9.831398 -17.219192 7.114745 -18.327756 0.000001 0.000000 0.000001 -0.918078 2.479575 10.775587 0.309605 -1.671262 20.987950 0.025233 -0.484782 5.961873 -0.000000 -0.000003 0.000003 -0.077962 -2.528755 16.466179 1.065689 -2.966829 39.509800 0.164056 -1.226523 15.237566 0.000000 0.000003 0.000004 0.389786 -4.198987 33.442119 1.263647 -3.191420 43.193860 0.643249 -2.363644 30.444212 0.000004 0.000002 -0.000004 -40.320939 1.433893 -4.340482 22.319969 4.119037 -0.883244 -0.871036 0.842071 -9.295046 -1.429776 -0.000001 0.000002 -0.000001 -0.000000 -0.000001 -19.239229 -14.028460 -6.320654 29.281458 2.109847 2.382957 -20.854108 -7.090931 -5.151481 -5.081135 0.000000 -0.000000 -0.000000 -0.000001 -0.000000 
-33.658257 194.610107 78.785309 8.217069 9.396347 4.242520 16.815359 14.318071 -6.314729 4.462768 4.228029 -0.219089 4.440253 4.217626 -0.317358 0.782587 -1.761367 0.395348 -3.762927 -11.708692 -1.609494 0.000000 0.000003 -0.000001 0.000000 0.000003 -0.000001 0.000000 0.000003 -0.000001 0.983538 2.985246 -17.815567 9.025718 -14.858107 -55.320451 -0.000002 -32.710162 -0.000032 20.783868 1.173738 5.756804 0.306136 4.087000 -21.480267 0.413897 2.164764 -21.645759 0.062783 0.856300 -8.386578 0.000001 -0.000002 0.000001 0.964343 -7.405762 15.357810 4.826382 23.718657 16.983622 -0.777788 7.058215 32.634760 0.000002 -0.000000 0.000000 -1.241211 -3.024287 -12.596869 0.435885 2.219326 -22.220610 0.090679 1.027849 -10.083117 0.000000 -0.000000 -0.000001 1.082908 6.006534 -22.050625 0.416597 2.171560 -21.717172 0.225206 1.610288 -15.921977 -0.000001 0.000001 -0.000002 2.108684 7.580789 -28.594954 0.436694 2.221333 -22.241693 0.139928 1.274050 -12.534414 0.000000 0.000003 0.000004 -1.012511 22.694473 19.295179 -31.593146 -9.677141 34.915176 -0.000027 43.985448 0.000052 -12.358352 2.050328 -1.303388 -0.527554 -1.111326 17.179080 0.638246 -2.355120 30.322570 0.170697 -1.250598 15.544433 0.000004 -0.000004 -0.000001 18.724807 10.386141 7.045747 -9.320420 -1.173803 -9.977233 -17.220852 7.189527 -18.381846 -0.000001 -0.000001 0.000001 -0.933101 2.475877 10.930853 0.313508 -1.681468 21.122287 0.026443 -0.496014 6.100360 0.000003 -0.000002 -0.000003 -0.078294 -2.537950 16.615458 1.073450 -2.976196 39.659340 0.167274 -1.238219 15.386705 0.000004 0.000001 -0.000001 0.391484 -4.204312 33.553840 1.268049 -3.196074 43.272520 0.646483 -2.369141 30.522753 0.000002 0.000000 0.000001 -41.396708 1.294451 -4.136685 22.394739 5.586845 -0.518917 -2.857886 1.071530 -9.933146 -1.627030 0.000003 0.000001 0.000000 0.000001 -0.000000 -17.004782 -14.281842 -6.309056 28.582330 2.409490 2.367992 -21.724284 -4.623727 -4.383234 -5.199032 -0.000006 0.000000 0.000000 -0.000002 -0.000000 
